
<!-- Generator: visioncortex VTracer 0.6.4 -->
<svg version="1.1" xmlns="http://www.w3.org/2000/svg" viewBox="0 0 387 382" preserveAspectRatio="xMidYMid meet">
<path d="M0 0 C127.71 0 255.42 0 387 0 C387 126.06 387 252.12 387 382 C259.29 382 131.58 382 0 382 C0 255.94 0 129.88 0 0 Z " fill="#5B3A1B" transform="translate(0,0)"/>
<path d="M0 0 C127.71 0 255.42 0 387 0 C387 126.06 387 252.12 387 382 C259.29 382 131.58 382 0 382 C0 255.94 0 129.88 0 0 Z M158.128 6.633 C156.281 6.952 154.424 7.215 152.566 7.469 C144.353 8.603 136.773 11.231 129 14 C128.064 14.308 127.128 14.616 126.164 14.934 C108.224 20.994 90.689 31.21 76 43 C75.486 43.411 74.972 43.822 74.443 44.245 C53.324 61.252 37.47 80.907 25 105 C24.428 106.066 23.855 107.132 23.266 108.23 C16.018 122.071 11.441 136.812 8 152 C7.833 152.719 7.667 153.438 7.495 154.179 C0.649 185.037 3.55 222.567 15 252 C15.268 252.69 15.536 253.381 15.812 254.092 C31.874 294.991 60.551 329.095 98 352 C98.985 352.616 99.97 353.232 100.984 353.867 C124.431 368.125 152.814 376.862 180.293 377.273 C181.457 377.292 181.457 377.292 182.644 377.312 C230.228 377.934 276.672 366.311 313 334 C313.824 333.285 314.647 332.569 315.496 331.832 C330.661 318.465 342.871 303.804 354 287 C354.531 286.207 355.062 285.414 355.609 284.598 C363.31 272.488 368.479 258.562 373 245 C315.58 245 258.16 245 199 245 C199 235.76 199 226.52 199 217 C258.4 217 317.8 217 379 217 C380.724 207.989 380.724 207.989 381.23 199.195 C381.229 198.035 381.227 196.875 381.225 195.68 C381.212 194.507 381.2 193.334 381.188 192.125 C381.187 190.929 381.186 189.732 381.186 188.5 C381.16 183.434 380.999 178.995 380 174 C320.27 174 260.54 174 199 174 C199 164.76 199 155.52 199 146 C257.08 146 315.16 146 375 146 C366.037 105.665 341.372 69.394 309 44 C307.629 42.904 307.629 42.904 306.23 41.785 C264.616 9.393 209.788 -2.522 158.128 6.633 Z " fill="#F0E5D6" transform="translate(0,0)"/>
<path d="M0 0 C1.129 0.278 2.258 0.557 3.422 0.844 C17.674 4.584 31.678 9.851 44 18 C44.546 18.359 45.092 18.719 45.654 19.089 C52.504 23.648 58.917 28.581 65 34.125 C65.516 34.591 66.031 35.057 66.562 35.538 C70.716 39.434 73.46 43.281 77 48 C28.49 48 -20.02 48 -70 48 C-70 109.38 -70 170.76 -70 234 C-23.8 234 22.4 234 70 234 C61.654 250.691 33.318 263.533 16.125 269.375 C13.102 270.327 10.063 271.185 7 272 C6.231 272.209 5.462 272.418 4.669 272.633 C-6.845 275.623 -18.218 276.365 -30.062 276.375 C-32.006 276.378 -32.006 276.378 -33.989 276.38 C-69.743 275.962 -105.622 260.057 -131 235 C-133.474 232.435 -135.761 229.772 -138 227 C-138.782 226.032 -139.565 225.064 -140.371 224.066 C-152.126 209.279 -160.175 193.598 -166.312 175.812 C-166.555 175.125 -166.798 174.438 -167.047 173.73 C-170.855 162.237 -171.35 150.51 -171.316 138.517 C-171.313 136.201 -171.336 133.885 -171.361 131.568 C-171.51 96.425 -156.928 64.298 -133 39 C-131.803 37.689 -131.803 37.689 -130.582 36.352 C-98.584 2.562 -45.009 -12.372 0 0 Z " fill="#EFE4D5" transform="translate(224,54)"/>
<path d="M0 0 C44.55 0 89.1 0 135 0 C134.34 1.32 133.68 2.64 133 4 C132.01 3.67 131.02 3.34 130 3 C130.33 2.34 130.66 1.68 131 1 C87.77 1 44.54 1 0 1 C0 0.67 0 0.34 0 0 Z " fill="#ECE0D0" transform="translate(159,288)"/>
<path d="M0 0 C17.49 0 34.98 0 53 0 C52.34 1.32 51.68 2.64 51 4 C50.01 3.67 49.02 3.34 48 3 C48.33 2.34 48.66 1.68 49 1 C32.83 1 16.66 1 0 1 C0 0.67 0 0.34 0 0 Z " fill="#ECE0D0" transform="translate(241,288)"/>
<path d="M0 0 C0.66 0.33 1.32 0.66 2 1 C0.35 2.98 -1.3 4.96 -3 7 C-3.33 6.34 -3.66 5.68 -4 5 C-2.68 3.35 -1.36 1.7 0 0 Z M-7 8 C-6.34 8.33 -5.68 8.66 -5 9 C-8.96 12.96 -12.92 16.92 -17 21 C-17 18 -17 18 -14.812 15.52 C-13.884 14.626 -12.956 13.733 -12 12.812 C-11.072 11.911 -10.144 11.01 -9.188 10.082 C-8.105 9.051 -8.105 9.051 -7 8 Z " fill="#EAE2D7" transform="translate(337,309)"/>
<path d="M0 0 C0.99 0.33 1.98 0.66 3 1 C-0.96 4.465 -0.96 4.465 -5 8 C-5 5 -5 5 -2.5 2.312 C-1.675 1.549 -0.85 0.786 0 0 Z " fill="#EDE3D5" transform="translate(90,94)"/>
<path d="M0 0 C5.61 0 11.22 0 17 0 C16.34 1.32 15.68 2.64 15 4 C14.01 3.67 13.02 3.34 12 3 C12.33 2.34 12.66 1.68 13 1 C8.71 1 4.42 1 0 1 C0 0.67 0 0.34 0 0 Z " fill="#EADECE" transform="translate(277,288)"/>
<path d="M0 0 C0.66 0 1.32 0 2 0 C2.33 1.32 2.66 2.64 3 4 C2.01 4.495 2.01 4.495 1 5 C0.67 3.35 0.34 1.7 0 0 Z " fill="#DDD2C4" transform="translate(17,259)"/>
<path d="M0 0 C0.99 0 1.98 0 3 0 C2.67 0.99 2.34 1.98 2 3 C1.01 2.67 0.02 2.34 -1 2 C-0.67 1.34 -0.34 0.68 0 0 Z " fill="#E7DDD0" transform="translate(290,289)"/>
</svg>